<?xml version="1.0" encoding="UTF-8" standalone="no"?>
<!-- Created with Inkscape (http://www.inkscape.org/) -->
<svg
   xmlns:dc="http://purl.org/dc/elements/1.1/"
   xmlns:cc="http://web.resource.org/cc/"
   xmlns:rdf="http://www.w3.org/1999/02/22-rdf-syntax-ns#"
   xmlns:svg="http://www.w3.org/2000/svg"
   xmlns="http://www.w3.org/2000/svg"
   xmlns:sodipodi="http://sodipodi.sourceforge.net/DTD/sodipodi-0.dtd"
   xmlns:inkscape="http://www.inkscape.org/namespaces/inkscape"
   width="601"
   height="751"
   id="svg2"
   sodipodi:version="0.32"
   inkscape:version="0.44"
   version="1.0"
   sodipodi:docbase="C:\Documents and Settings\ltljltlj\Desktop\Signs\Speed Limit Signs"
   sodipodi:docname="Speed Limit 60 sign (Outline).svg">
  <defs
     id="defs4" />
  <sodipodi:namedview
     id="base"
     pagecolor="#ffffff"
     bordercolor="#666666"
     borderopacity="1.0"
     gridtolerance="10000"
     guidetolerance="10"
     objecttolerance="10"
     inkscape:pageopacity="0.0"
     inkscape:pageshadow="2"
     inkscape:zoom="1.0293333"
     inkscape:cx="299.99998"
     inkscape:cy="374.99999"
     inkscape:document-units="px"
     inkscape:current-layer="layer1"
     width="601px"
     height="751px"
     inkscape:window-width="1280"
     inkscape:window-height="968"
     inkscape:window-x="-4"
     inkscape:window-y="-4" />
  <metadata
     id="metadata7">
    <rdf:RDF>
      <cc:Work
         rdf:about="">
        <dc:format>image/svg+xml</dc:format>
        <dc:type
           rdf:resource="http://purl.org/dc/dcmitype/StillImage" />
      </cc:Work>
    </rdf:RDF>
  </metadata>
  <g
     inkscape:label="Layer 1"
     inkscape:groupmode="layer"
     id="layer1">
    <path
       style="color:black;fill:white;fill-opacity:1;fill-rule:nonzero;stroke:black;stroke-width:1;stroke-linecap:butt;stroke-linejoin:miter;marker:none;marker-start:none;marker-mid:none;marker-end:none;stroke-miterlimit:4;stroke-dashoffset:0;stroke-opacity:1;visibility:visible;display:inline;overflow:visible"
       d="M 38,0.5 L 563,0.5 C 583.775,0.5 600.5,17.225 600.5,38 L 600.5,713 C 600.5,733.775 583.775,750.5 563,750.5 L 38,750.5 C 17.225,750.5 0.5,733.775 0.5,713 L 0.5,38 C 0.5,17.225 17.225,0.5 38,0.5 z "
       id="rect1872" />
    <path
       style="color:black;fill:black;fill-opacity:1;fill-rule:nonzero;stroke:none;stroke-width:0.8735441;stroke-linecap:butt;stroke-linejoin:miter;marker:none;marker-start:none;marker-mid:none;marker-end:none;stroke-miterlimit:4;stroke-dashoffset:0;stroke-opacity:1;visibility:visible;display:inline;overflow:visible"
       d="M 38,9.875 L 563,9.875 C 578.58125,9.875 591.125,22.41875 591.125,38 L 591.125,713 C 591.125,728.58125 578.58125,741.125 563,741.125 L 38,741.125 C 22.41875,741.125 9.875,728.58125 9.875,713 L 9.875,38 C 9.875,22.41875 22.41875,9.875 38,9.875 z "
       id="rect2760" />
    <path
       style="color:black;fill:white;fill-opacity:1;fill-rule:nonzero;stroke:none;stroke-width:0.8735441;stroke-linecap:butt;stroke-linejoin:miter;marker:none;marker-start:none;marker-mid:none;marker-end:none;stroke-miterlimit:4;stroke-dashoffset:0;stroke-opacity:1;visibility:visible;display:inline;overflow:visible"
       d="M 38,25.5 L 563,25.5 C 569.925,25.5 575.5,31.075 575.5,38 L 575.5,713 C 575.5,719.925 569.925,725.5 563,725.5 L 38,725.5 C 31.075,725.5 25.5,719.925 25.5,713 L 25.5,38 C 25.5,31.075 31.075,25.5 38,25.5 z "
       id="rect2762" />
    <path
       style="font-size:151.02735901px;font-style:normal;font-variant:normal;font-weight:normal;font-stretch:normal;text-align:center;line-height:125%;writing-mode:lr-tb;text-anchor:middle;font-family:Roadgeek 2005 Series E"
       d="M 144.10621,171.39507 C 144.10612,181.5461 139.31633,189.35749 129.73681,194.82924 C 126.17353,197.01856 122.15016,198.68484 117.66669,199.82807 C 113.18309,200.97132 108.5472,201.54294 103.75901,201.54294 C 94.894489,201.54294 87.074729,199.97611 80.299701,196.84244 C 73.524622,193.70878 67.233058,188.85797 61.424989,182.29002 L 76.097548,171.09901 C 79.968541,175.47463 84.043988,178.65763 88.323903,180.64804 C 92.60375,182.63848 97.646174,183.63369 103.45119,183.63367 C 109.97124,183.63369 115.31992,182.4153 119.49726,179.97849 C 123.67447,177.54172 125.76311,174.43159 125.76318,170.64809 C 125.76311,166.67031 123.62395,163.63686 119.34569,161.54771 C 117.51117,160.84935 115.60053,160.15172 113.61378,159.4548 C 111.62692,158.75797 109.46288,158.16206 107.12166,157.66706 L 102.38317,156.32341 L 97.644662,155.27583 L 92.756919,153.78643 C 87.458721,152.59009 83.306319,151.27074 80.299701,149.82835 C 77.293032,148.38606 74.720129,146.47155 72.580984,144.08482 C 70.441802,141.79535 68.837431,139.2075 67.767862,136.32125 C 66.698267,133.43512 66.163476,130.40091 66.163488,127.21859 C 66.163476,123.04045 67.029402,119.25925 68.761268,115.87499 C 70.493105,112.4909 72.887227,109.58042 75.943639,107.14355 C 79.000009,104.70685 82.69302,102.81663 87.022681,101.47289 C 91.352277,100.12934 96.116424,99.457509 101.31513,99.45741 C 108.95451,99.457509 115.90756,100.70096 122.17433,103.18775 C 128.44095,105.67474 134.17208,109.55537 139.36771,114.82968 L 125.76318,126.77222 C 119.34562,120.20436 111.19628,116.92039 101.31513,116.92031 C 96.116424,116.92039 92.06585,117.84045 89.163401,119.68048 C 86.260883,121.52069 84.809641,124.03338 84.809671,127.21859 C 84.809641,128.61241 85.063821,129.83157 85.572216,130.87605 C 86.080546,131.92067 86.946472,132.86578 88.169996,133.71138 C 89.39345,134.55711 91.049126,135.32838 93.137025,136.02519 C 95.224846,136.72213 97.848275,137.41825 101.00732,138.11354 C 107.83207,139.50736 113.53754,140.90035 118.12375,142.29252 C 122.70983,143.68481 126.42849,145.0778 129.27975,146.4715 C 133.86581,148.76108 137.48343,152.11943 140.13258,156.5466 C 142.78158,160.97385 144.10612,165.92334 144.10621,171.39507 L 144.10621,171.39507 z M 246.45967,131.09923 C 246.45957,133.68639 246.10357,136.27349 245.39164,138.86052 C 244.67953,141.44767 243.6356,143.88522 242.25984,146.17317 C 240.88391,148.46122 239.22824,150.57538 237.29282,152.51565 C 235.35723,154.45601 233.16598,156.07295 230.71908,157.36645 C 227.76522,158.95762 224.93813,160.00217 222.23782,160.50012 C 219.53737,160.99814 216.25167,161.24714 212.38071,161.2471 L 183.19417,161.2471 L 183.19417,200.4999 L 164.54799,200.4999 L 164.54799,100.50045 L 212.38071,100.50045 C 216.25167,100.50055 219.53737,100.79965 222.23782,101.39773 C 224.93813,101.99603 227.76522,103.09068 230.71908,104.6817 C 235.60985,107.26889 239.456,110.90054 242.25752,115.57665 C 245.05886,120.25294 246.45957,125.42713 246.45967,131.09923 L 246.45967,131.09923 z M 228.1213,131.09923 C 228.12123,127.21867 226.74616,124.13434 223.9961,121.84627 C 221.2459,119.55835 217.57776,118.41435 212.99168,118.41427 L 183.19417,118.41427 L 183.19417,143.33783 L 212.99168,143.33783 C 217.57776,143.33789 221.2459,142.21819 223.9961,139.97871 C 226.74616,137.73935 228.12123,134.77953 228.1213,131.09923 L 228.1213,131.09923 z M 263.64604,200.4999 L 263.64604,100.50045 L 338.37536,100.50045 L 338.37536,118.41427 L 282.29223,118.41427 L 282.29223,136.9202 L 312.85462,136.9202 L 312.85462,155.27583 L 282.29223,155.27583 L 282.29223,182.59063 L 340.21293,182.59063 L 340.21293,200.4999 L 263.64604,200.4999 z M 360.6547,200.4999 L 360.6547,100.50045 L 435.38401,100.50045 L 435.38401,118.41427 L 379.30089,118.41427 L 379.30089,136.9202 L 409.86327,136.9202 L 409.86327,155.27583 L 379.30089,155.27583 L 379.30089,182.59063 L 437.22158,182.59063 L 437.22158,200.4999 L 360.6547,200.4999 z M 539.57504,150.35215 C 539.57495,160.40299 537.48631,169.15948 533.30912,176.62164 C 529.13176,184.08385 522.96845,190.05284 514.81917,194.52862 C 511.2528,196.52057 507.381,198.01377 503.20379,199.00822 C 499.02645,200.00267 494.84996,200.4999 490.67429,200.4999 L 457.66335,200.4999 L 457.66335,100.50045 L 490.67429,100.50045 C 499.4361,100.50055 507.587,102.59118 515.127,106.77234 C 523.07106,111.24822 529.13176,117.14281 533.30912,124.45614 C 537.48631,131.76961 539.57495,140.4016 539.57504,150.35215 L 539.57504,150.35215 z M 521.23667,150.35215 C 521.2366,143.58689 519.98901,137.91548 517.49391,133.33789 C 514.99866,128.76045 511.20306,125.07945 506.10705,122.29491 C 501.42136,119.70789 496.2771,118.41435 490.67429,118.41427 L 476.30954,118.41427 L 476.30954,182.59063 L 490.67429,182.59063 C 496.07189,182.59065 501.01248,181.29711 505.49609,178.70999 C 515.98974,173.33542 521.2366,163.88282 521.23667,150.35215 L 521.23667,150.35215 z "
       id="text2774" />
    <path
       style="font-size:149.25358582px;font-style:normal;font-variant:normal;font-weight:normal;font-stretch:normal;text-align:center;line-height:125%;writing-mode:lr-tb;text-anchor:middle;font-family:Roadgeek 2005 Series E"
       d="M 117.675,350.49999 L 117.675,250.50049 L 135.58513,250.50049 L 135.58513,335.12772 L 192.45391,335.12772 L 192.45391,350.49999 L 117.675,350.49999 z M 209.50315,350.49999 L 209.50315,250.50049 L 227.41328,250.50049 L 227.41328,350.49999 L 209.50315,350.49999 z M 329.64041,350.49999 L 329.64041,289.45725 L 300.23809,350.49999 L 271.13186,289.45725 L 271.13186,350.49999 L 253.52235,350.49999 L 253.52235,250.50049 L 271.13186,250.50049 L 300.23809,309.75321 L 329.64041,250.50049 L 347.25447,250.50049 L 347.25447,350.49999 L 329.64041,350.49999 z M 373.3362,350.49999 L 373.3362,250.50049 L 391.24633,250.50049 L 391.24633,350.49999 L 373.3362,350.49999 z M 454.5194,268.1137 L 454.5194,350.49999 L 437.05565,350.49999 L 437.05565,268.1137 L 408.25004,268.1137 L 408.25004,250.50049 L 483.32501,250.50049 L 483.32501,268.1137 L 454.5194,268.1137 z "
       id="text2780" />
    <path
       style="font-size:373.12701416px;font-style:normal;font-variant:normal;font-weight:normal;font-stretch:normal;text-align:center;line-height:125%;writing-mode:lr-tb;text-anchor:middle;font-family:Roadgeek 2005 Series E"
       d="M 264.14715,577.7375 C 264.14692,588.93471 261.78413,599.25885 257.05878,608.70996 C 252.33298,618.16114 245.74185,626.30659 237.28538,633.14631 C 228.82848,639.98608 218.75485,645.33413 207.06446,649.1905 C 195.37371,653.04687 182.43816,654.97506 168.25779,654.97506 C 153.33319,654.97506 139.46582,652.61227 126.65563,647.8867 C 113.84525,643.16113 102.33876,636.44474 92.136143,627.73752 C 81.94099,619.03034 74.418031,608.39686 69.567242,595.83703 C 64.716374,583.27731 62.29096,568.41548 62.290992,551.25149 C 62.29096,524.87948 67.95026,500.7487 79.268909,478.85907 C 90.587459,456.96978 106.81762,438.68808 127.95943,424.01391 C 135.17105,419.03425 142.50803,414.74138 149.97037,411.13529 C 157.43248,407.52967 165.20596,404.60702 173.29081,402.36735 C 181.37538,400.12817 189.95733,398.51122 199.03667,397.51651 C 208.11567,396.52231 218.12857,396.02508 229.0754,396.02483 L 229.0754,440.79825 L 224.60033,440.79825 C 211.16357,440.79846 199.59636,441.9808 189.89865,444.34528 C 180.20063,446.71017 170.9981,450.50391 162.29104,455.72651 C 150.84325,462.19448 141.51357,469.59598 134.30196,477.93103 C 127.09013,486.26643 120.37565,497.02328 114.15847,510.2016 C 119.62411,508.71385 124.65903,507.41005 129.26324,506.29019 C 133.86725,505.17062 138.34611,504.36215 142.69982,503.86477 C 147.0533,503.36769 151.46763,502.99382 155.94282,502.74316 C 160.41775,502.4928 165.14523,502.36754 170.12525,502.36739 C 183.80459,502.36754 196.36627,504.2331 207.8103,507.96407 C 219.25398,511.69533 229.14162,516.92002 237.47326,523.63818 C 245.80448,530.35659 252.33298,538.31605 257.05878,547.51658 C 261.78413,556.71732 264.14692,566.79095 264.14715,577.7375 L 264.14715,577.7375 z M 219.37373,578.48904 C 219.37354,569.03796 214.52271,561.45048 204.82123,555.72656 C 195.1194,550.00283 182.43437,547.14091 166.7661,547.14081 C 151.08997,547.14091 138.5264,549.9402 129.07535,555.53867 C 119.62411,561.13734 114.89854,568.53694 114.89862,577.7375 C 114.89854,587.43923 119.62411,595.15197 129.07535,600.87575 C 138.5264,606.59962 151.08997,609.46154 166.7661,609.46149 C 182.43437,609.46154 195.1194,606.66225 204.82123,601.06363 C 214.52271,595.46511 219.37354,587.94025 219.37373,578.48904 L 219.37373,578.48904 z M 538.70887,524.01395 C 538.70863,540.18351 536.78234,556.04169 532.93,571.58856 C 529.07719,587.13558 522.98329,601.12631 514.64828,613.56079 C 506.31283,625.99535 495.55409,636.00635 482.37202,643.59383 C 469.18957,651.18132 453.1435,654.97506 434.23376,654.97506 C 415.58184,654.97506 399.6022,651.30657 386.29477,643.96959 C 372.98717,636.63263 362.10317,626.87024 353.64274,614.6824 C 345.1822,602.49464 338.96305,588.62726 334.98525,573.08024 C 331.00738,557.53338 329.01847,541.54994 329.0185,525.12987 C 329.01847,508.71005 331.07001,492.72661 335.17314,477.1795 C 339.27619,461.63273 345.6187,447.89061 354.2007,435.95311 C 362.78259,424.01603 373.66659,414.377 386.85273,407.03599 C 400.0387,399.69546 415.83236,396.02508 434.23376,396.02483 C 452.89299,396.02508 468.8138,399.75619 481.99625,407.21818 C 495.17832,414.68065 505.99969,424.44494 514.46039,436.51107 C 522.92066,448.57762 529.07719,462.25901 532.93,477.55526 C 536.78234,492.85187 538.70863,508.33808 538.70887,524.01395 L 538.70887,524.01395 z M 493.93545,525.12987 C 493.93525,498.76548 488.71245,478.11909 478.26703,463.19065 C 467.82124,448.26258 453.1435,440.79846 434.23376,440.79825 C 423.04407,440.79846 413.59293,443.41175 405.8803,448.63815 C 398.16745,453.86495 391.94829,460.5206 387.22281,468.60514 C 382.49714,476.69003 379.07727,485.64395 376.96318,495.46691 C 374.84893,505.29018 373.79184,514.80585 373.79192,524.01395 C 373.79184,551.87408 379.1399,573.20368 389.83611,588.00282 C 400.53213,602.80208 415.33133,610.20169 434.23376,610.20164 C 443.44185,610.20169 451.71444,608.15014 459.05158,604.04701 C 466.38839,599.94397 472.66828,594.09868 477.89126,586.51113 C 483.11388,578.92371 487.09361,569.84454 489.83046,559.27359 C 492.56692,548.70282 493.93525,536.94962 493.93545,524.01395 L 493.93545,525.12987 z "
       id="text1895" />
  </g>
</svg>
